<svg width="589" height="558" viewBox="0 0 589 558" fill="none" xmlns="http://www.w3.org/2000/svg">
<!-- <rect width="589" height="558" fill="white"/> -->
<rect width="100%" height="100%" fill="none" />
<path d="M139.903 558H0.0643966C-3.16265 558 115.7 186 175.535 0H317.39L285.12 102.982C341.593 108.825 450.506 88.3743 467.986 184.052C486.81 249.055 408.151 325.743 381.259 325.743H589C588.328 345.463 571.789 386.51 511.013 392.937C450.237 399.364 327.027 395.615 273.019 392.937C234.629 391.034 232.764 341.504 235.731 340.969C230.151 338.474 276.519 325.604 285.12 316.979C314.701 299.45 330.836 263.662 328.82 230.065C328.82 188.435 278.397 167.254 264.951 172.366L139.903 558Z" fill="url(#paint0_linear_0_1)"/>
<path d="M139.903 558H0.0643966C-3.16265 558 115.7 186 175.535 0H317.39L285.12 102.982C341.593 108.825 450.506 88.3743 467.986 184.052C486.81 249.055 408.151 325.743 381.259 325.743H589C588.328 345.463 571.789 386.51 511.013 392.937C450.237 399.364 327.027 395.615 273.019 392.937C234.629 391.034 232.764 341.504 235.731 340.969C230.151 338.474 276.519 325.604 285.12 316.979C314.701 299.45 330.836 263.662 328.82 230.065C328.82 188.435 278.397 167.254 264.951 172.366L139.903 558Z" fill="url(#paint1_linear_0_1)" fill-opacity="0.2"/>
<path d="M139.903 558H0.0643966C-3.16265 558 115.7 186 175.535 0H317.39L285.12 102.982C341.593 108.825 450.506 88.3743 467.986 184.052C486.81 249.055 408.151 325.743 381.259 325.743H589C588.328 345.463 571.789 386.51 511.013 392.937C450.237 399.364 327.027 395.615 273.019 392.937C234.629 391.034 232.764 341.504 235.731 340.969C230.151 338.474 276.519 325.604 285.12 316.979C314.701 299.45 330.836 263.662 328.82 230.065C328.82 188.435 278.397 167.254 264.951 172.366L139.903 558Z" fill="url(#paint2_linear_0_1)" fill-opacity="0.2"/>
<defs>
<linearGradient id="paint0_linear_0_1" x1="294.5" y1="0" x2="294.5" y2="558" gradientUnits="userSpaceOnUse">
<stop offset="0.165" stop-color="#46C8B6"/>
<stop offset="0.545" stop-color="#226259"/>
</linearGradient>
<linearGradient id="paint1_linear_0_1" x1="294.5" y1="0" x2="294.5" y2="558" gradientUnits="userSpaceOnUse">
<stop offset="0.494" stop-color="#006FFF"/>
<stop offset="0.754"/>
</linearGradient>
<linearGradient id="paint2_linear_0_1" x1="294.5" y1="0" x2="294.5" y2="558" gradientUnits="userSpaceOnUse">
<stop offset="0.305" stop-color="#00A6C7" stop-opacity="0"/>
<stop offset="1" stop-color="#1F1F1F"/>

</linearGradient>
</defs>
</svg>
